<?xml version="1.0" encoding="utf-8"?>
<!-- Generator: Adobe Illustrator 26.3.1, SVG Export Plug-In . SVG Version: 6.00 Build 0)  -->
<svg version="1.1" id="レイヤー_1" xmlns="http://www.w3.org/2000/svg" xmlns:xlink="http://www.w3.org/1999/xlink" x="0px"
	 y="0px" viewBox="0 0 100 100" style="enable-background:new 0 0 100 100;" xml:space="preserve">
<style type="text/css">
	.st0{fill:#28AE60;}
	.st1{fill:#FFFFFF;}
</style>
<g>
	<circle class="st0" cx="50" cy="50" r="49"/>
</g>
<path class="st1" d="M62.1,29.1h-3.4c-2.9,0-5.2,2.3-5.2,5.1v31.3c0,2.9,2.3,5.2,5.2,5.2l3.4,0.2c2.9,0,5.2-2.3,5.2-5.2V34.5
	C67.4,31.6,65.1,29.1,62.1,29.1z M41.3,29.1h-3.4c-2.9,0-5.2,2.3-5.2,5.2v31.3c0,2.9,2.3,5.2,5.2,5.2h3.4c2.9,0,5.2-2.3,5.2-5.2
	V34.5C46.6,31.6,44.3,29.1,41.3,29.1z"/>
</svg>
