<?xml version="1.0" encoding="utf-8"?>
<!-- Generator: Adobe Illustrator 26.3.1, SVG Export Plug-In . SVG Version: 6.00 Build 0)  -->
<svg version="1.1" id="レイヤー_1" xmlns="http://www.w3.org/2000/svg" xmlns:xlink="http://www.w3.org/1999/xlink" x="0px"
	 y="0px" viewBox="0 0 28 38" style="enable-background:new 0 0 28 38;" xml:space="preserve">
<style type="text/css">
	.st0{fill:#FFFFFF;}
</style>
<polygon class="st0" points="18.7,0.3 28,9.7 18.7,9.7 "/>
<path class="st0" d="M18.7,12c-1.3,0-2.3-1-2.3-2.3V0.3H2c-1.1,0-2,0.9-2,2v33.4c0,1.1,0.9,2,2,2H26c1.1,0,2-0.9,2-2V12H18.7z
	 M10,25.1c-0.1,0.2-0.2,0.3-0.4,0.4c-0.6,0.2-1.1,0.3-1.7,0.3c-1.1,0-2.1-0.3-2.7-1c-0.7-0.7-1-1.6-1-2.7c0-1.2,0.3-2.1,1-2.7
	c0.7-0.7,1.6-1,2.8-1c0.5,0,1.1,0.1,1.7,0.3c0.2,0.1,0.3,0.2,0.4,0.3c0.1,0.2,0.1,0.4,0,0.6c-0.1,0.2-0.2,0.3-0.3,0.4
	s-0.3,0.1-0.5,0c-0.4-0.1-0.8-0.2-1.2-0.2c-0.7,0-1.2,0.2-1.5,0.6s-0.5,1-0.5,1.7c0,0.7,0.2,1.3,0.6,1.7c0.4,0.4,0.9,0.6,1.5,0.6
	c0.4,0,0.8-0.1,1.2-0.2c0.2-0.1,0.3-0.1,0.5,0c0.2,0.1,0.3,0.2,0.3,0.4C10.1,24.7,10,24.9,10,25.1z M16.2,25.2
	c-0.5,0.4-1.2,0.6-2.1,0.6c-0.9,0-1.6-0.1-2.3-0.4c-0.2-0.1-0.3-0.2-0.4-0.4c-0.1-0.2-0.1-0.4,0-0.6c0-0.2,0.1-0.3,0.3-0.4
	c0.2-0.1,0.3-0.1,0.5,0c0.6,0.2,1.2,0.4,1.9,0.4c0.8,0,1.2-0.3,1.2-0.8c0-0.2-0.1-0.4-0.2-0.6s-0.5-0.2-1-0.3
	c-1-0.2-1.7-0.4-2.2-0.8c-0.4-0.4-0.6-0.9-0.6-1.5c0-0.6,0.2-1.1,0.7-1.5c0.5-0.4,1.2-0.6,2.2-0.6c0.7,0,1.4,0.1,2,0.3
	c0.2,0.1,0.3,0.2,0.4,0.3c0.1,0.2,0.1,0.4,0.1,0.5c0,0.2-0.1,0.3-0.3,0.4s-0.3,0.1-0.5,0c-0.5-0.2-1.1-0.3-1.6-0.3
	c-0.8,0-1.3,0.2-1.3,0.7c0,0.2,0.1,0.4,0.3,0.5c0.2,0.1,0.5,0.2,1,0.3c1,0.1,1.7,0.4,2.2,0.8c0.4,0.4,0.7,0.9,0.7,1.6
	C17,24.3,16.7,24.8,16.2,25.2z M24.3,19.2l-1.9,5.6c-0.1,0.2-0.2,0.4-0.4,0.5s-0.4,0.2-0.6,0.2h-0.9c-0.2,0-0.4-0.1-0.6-0.2
	c-0.2-0.1-0.3-0.3-0.4-0.5l-1.9-5.6c-0.1-0.2,0-0.3,0.1-0.5c0.1-0.2,0.3-0.2,0.5-0.2h0.4c0.2,0,0.4,0.1,0.6,0.2
	c0.2,0.1,0.3,0.3,0.4,0.5l1.5,5.3c0,0,0,0,0,0c0,0,0,0,0,0l1.4-5.3c0.1-0.2,0.2-0.4,0.4-0.5c0.2-0.1,0.4-0.2,0.6-0.2h0.3
	c0.2,0,0.3,0.1,0.5,0.2C24.3,18.9,24.4,19,24.3,19.2z"/>
</svg>
