<?xml version="1.0" encoding="utf-8"?>
<!-- Generator: Adobe Illustrator 26.3.1, SVG Export Plug-In . SVG Version: 6.00 Build 0)  -->
<svg version="1.1" id="レイヤー_1" xmlns="http://www.w3.org/2000/svg" xmlns:xlink="http://www.w3.org/1999/xlink" x="0px"
	 y="0px" viewBox="0 0 28 38" style="enable-background:new 0 0 28 38;" xml:space="preserve">
<style type="text/css">
	.st0{fill:#28AE60;}
</style>
<path class="st0" d="M24.7,11.8h-7.2V4.7L24.7,11.8z M17.6,13.6h7.2v17c0,1.5-1.2,2.7-2.7,2.7H5.9c-1.5,0-2.7-1.2-2.7-2.7V7.4
	c0-1.5,1.2-2.7,2.7-2.7h9.9v7.2C15.8,12.8,16.6,13.6,17.6,13.6z M17.5,21.2l-2.2,2.2v-5.7c0-0.7-0.6-1.3-1.3-1.3s-1.3,0.6-1.3,1.3
	v5.7l-2.2-2.2c-0.2-0.3-0.6-0.4-0.9-0.4s-0.7,0.1-1,0.4c-0.5,0.5-0.5,1.4,0,1.9l4.5,4.5c0.5,0.5,1.4,0.5,1.9,0l4.5-4.5
	c0.5-0.5,0.5-1.4,0-1.9C18.9,20.7,18.1,20.7,17.5,21.2z"/>
</svg>
