<?xml version="1.0" encoding="utf-8"?>
<!-- Generator: Adobe Illustrator 26.3.1, SVG Export Plug-In . SVG Version: 6.00 Build 0)  -->
<svg version="1.1" id="レイヤー_1" xmlns="http://www.w3.org/2000/svg" xmlns:xlink="http://www.w3.org/1999/xlink" x="0px"
	 y="0px" viewBox="0 0 28 38" style="enable-background:new 0 0 28 38;" xml:space="preserve">
<style type="text/css">
	.st0{fill:#28AE60;}
</style>
<g>
	<path class="st0" d="M9.1,5.7c0.3-0.6,0.9-1,1.6-1h6.7c0.7,0,1.3,0.4,1.6,1l0.4,0.8h5.3c1,0,1.8,0.8,1.8,1.8s-0.8,1.8-1.8,1.8H3.3
		c-1,0-1.8-0.8-1.8-1.8s0.8-1.8,1.8-1.8h5.3L9.1,5.7z"/>
	<path class="st0" d="M23.5,30.7c-0.1,1.5-1.3,2.6-2.7,2.6H7.2c-1.4,0-2.6-1.1-2.7-2.6L3.3,11.9h21.4L23.5,30.7z"/>
</g>
</svg>
