<?xml version="1.0" encoding="utf-8"?>
<!-- Generator: Adobe Illustrator 26.3.1, SVG Export Plug-In . SVG Version: 6.00 Build 0)  -->
<svg version="1.1" id="レイヤー_1" xmlns="http://www.w3.org/2000/svg" xmlns:xlink="http://www.w3.org/1999/xlink" x="0px"
	 y="0px" viewBox="0 0 28 38" style="enable-background:new 0 0 28 38;" xml:space="preserve">
<style type="text/css">
	.st0{fill:#FFFFFF;}
</style>
<path class="st0" d="M26.6,19c0,7-5.7,12.6-12.6,12.6S1.4,26,1.4,19S7,6.4,14,6.4S26.6,12,26.6,19z M6.3,13.5
	C5.2,15.1,4.5,17,4.5,19c0,5.2,4.2,9.5,9.5,9.5c2,0,3.9-0.6,5.5-1.8L6.3,13.5z M23.5,19c0-5.3-4.2-9.5-9.5-9.5c-2,0-3.9,0.6-5.5,1.8
	l13.2,13.2C22.8,22.9,23.5,21,23.5,19L23.5,19z"/>
</svg>
