<?xml version="1.0" encoding="utf-8"?>
<!-- Generator: Adobe Illustrator 26.3.1, SVG Export Plug-In . SVG Version: 6.00 Build 0)  -->
<svg version="1.1" id="レイヤー_1" xmlns="http://www.w3.org/2000/svg" xmlns:xlink="http://www.w3.org/1999/xlink" x="0px"
	 y="0px" viewBox="0 0 28 38" style="enable-background:new 0 0 28 38;" xml:space="preserve">
<style type="text/css">
	.st0{fill:#FFFFFF;}
</style>
<polygon class="st0" points="18.7,0.3 28,9.7 18.7,9.7 "/>
<path class="st0" d="M18.7,12c-1.3,0-2.3-1-2.3-2.3V0.3H2c-1.1,0-2,0.9-2,2v33.4c0,1.1,0.9,2,2,2H26c1.1,0,2-0.9,2-2V12H18.7z
	 M8,25.4c-0.1,0.1-0.2,0.2-0.4,0.2H7.1c-0.2,0-0.5-0.1-0.7-0.2S6.1,25.1,6,24.9L4.9,23c0,0,0,0,0,0c0,0,0,0,0,0l-1.1,1.9
	c-0.1,0.2-0.3,0.4-0.5,0.5c-0.2,0.1-0.4,0.2-0.7,0.2H2.3c-0.2,0-0.3-0.1-0.4-0.2s-0.1-0.3,0-0.4l1.8-2.9c0-0.1,0-0.1,0-0.2L2,19.1
	c-0.1-0.1-0.1-0.3,0-0.4c0.1-0.1,0.2-0.2,0.4-0.2h0.4c0.2,0,0.5,0.1,0.7,0.2c0.2,0.1,0.4,0.3,0.5,0.5L5,21c0,0,0,0,0,0s0,0,0,0
	l1-1.8c0.1-0.2,0.3-0.4,0.5-0.5c0.2-0.1,0.4-0.2,0.7-0.2h0.4c0.2,0,0.3,0.1,0.4,0.2C8,18.8,8,19,7.9,19.1l-1.8,2.7
	c0,0.1,0,0.1,0,0.2l1.8,2.9C8,25.1,8,25.2,8,25.4z M11.5,24.8c0,0.2-0.1,0.4-0.2,0.5c-0.2,0.2-0.3,0.2-0.6,0.2h-0.3
	c-0.2,0-0.4-0.1-0.6-0.2c-0.2-0.2-0.2-0.3-0.2-0.5v-8.7c0-0.2,0.1-0.4,0.2-0.5c0.2-0.2,0.3-0.2,0.6-0.2h0.3c0.2,0,0.4,0.1,0.6,0.2
	c0.2,0.2,0.2,0.3,0.2,0.5V24.8z M18.3,25.2c-0.5,0.4-1.2,0.6-2.1,0.6c-0.9,0-1.6-0.1-2.3-0.4c-0.2-0.1-0.3-0.2-0.4-0.4
	c-0.1-0.2-0.1-0.4,0-0.6c0-0.2,0.1-0.3,0.3-0.4c0.2-0.1,0.3-0.1,0.5,0c0.6,0.2,1.2,0.4,1.9,0.4c0.8,0,1.2-0.3,1.2-0.8
	c0-0.2-0.1-0.4-0.2-0.6s-0.5-0.2-1-0.3c-1-0.2-1.7-0.4-2.2-0.8c-0.4-0.4-0.6-0.9-0.6-1.5c0-0.6,0.2-1.1,0.7-1.5
	c0.5-0.4,1.2-0.6,2.2-0.6c0.7,0,1.4,0.1,2,0.3c0.2,0.1,0.3,0.2,0.4,0.3c0.1,0.2,0.1,0.4,0.1,0.5c0,0.2-0.1,0.3-0.3,0.4
	s-0.3,0.1-0.5,0c-0.5-0.2-1.1-0.3-1.6-0.3c-0.8,0-1.3,0.2-1.3,0.7c0,0.2,0.1,0.4,0.3,0.5s0.5,0.2,1,0.3c1,0.1,1.7,0.4,2.2,0.8
	s0.7,0.9,0.7,1.6C19,24.3,18.8,24.8,18.3,25.2z M25.7,25.4c-0.1,0.1-0.2,0.2-0.4,0.2h-0.4c-0.2,0-0.5-0.1-0.7-0.2
	c-0.2-0.1-0.4-0.3-0.5-0.5L22.6,23c0,0,0,0,0,0s0,0,0,0l-1.1,1.9c-0.1,0.2-0.3,0.4-0.5,0.5s-0.4,0.2-0.7,0.2H20
	c-0.2,0-0.3-0.1-0.4-0.2c-0.1-0.1-0.1-0.3,0-0.4l1.8-2.9c0-0.1,0-0.1,0-0.2l-1.7-2.7c-0.1-0.1-0.1-0.3,0-0.4
	c0.1-0.1,0.2-0.2,0.4-0.2h0.4c0.2,0,0.5,0.1,0.7,0.2c0.2,0.1,0.4,0.3,0.5,0.5l1,1.8c0,0,0,0,0,0s0,0,0,0l1-1.8
	c0.1-0.2,0.3-0.4,0.5-0.5c0.2-0.1,0.4-0.2,0.7-0.2h0.4c0.2,0,0.3,0.1,0.4,0.2c0.1,0.1,0.1,0.3,0,0.4l-1.8,2.7c0,0.1,0,0.1,0,0.2
	l1.8,2.9C25.7,25.1,25.7,25.2,25.7,25.4z"/>
</svg>
