<?xml version="1.0" encoding="utf-8"?>
<!-- Generator: Adobe Illustrator 26.3.1, SVG Export Plug-In . SVG Version: 6.00 Build 0)  -->
<svg version="1.1" id="レイヤー_1" xmlns="http://www.w3.org/2000/svg" xmlns:xlink="http://www.w3.org/1999/xlink" x="0px"
	 y="0px" viewBox="0 0 40 40" style="enable-background:new 0 0 40 40;" xml:space="preserve">
<style type="text/css">
	.st0{fill:#FFFFFF;}
	.st1{fill:#565656;}
	.st2{fill:#E49BC0;}
	.st3{fill:#8BCAFC;}
	.st4{fill:#F0CA30;}
</style>
<g>
	<path class="st0" d="M30.48,18.09H9.55c-1.29,0-2.34-1.05-2.34-2.34V5.26c0-1.29,1.05-2.34,2.34-2.34h20.93
		c1.29,0,2.34,1.05,2.34,2.34v10.48C32.82,17.04,31.77,18.09,30.48,18.09z"/>
	<path class="st1" d="M30.48,18.67H9.55c-1.61,0-2.93-1.31-2.93-2.93V5.26c0-1.62,1.31-2.93,2.93-2.93h20.93
		c1.61,0,2.93,1.31,2.93,2.93v10.48C33.4,17.36,32.09,18.67,30.48,18.67z M9.55,3.51C8.58,3.51,7.8,4.3,7.8,5.26v10.48
		c0,0.97,0.79,1.75,1.75,1.75h20.93c0.97,0,1.75-0.79,1.75-1.75V5.26c0-0.97-0.79-1.75-1.75-1.75H9.55z"/>
	<g>
		<line class="st0" x1="20.01" y1="18.21" x2="20.01" y2="32.39"/>
		<rect x="19.43" y="18.21" class="st1" width="1.18" height="14.19"/>
	</g>
	<path class="st2" d="M23.36,37.08h-6.69c-0.47,0-0.84-0.38-0.84-0.84v-4.32c0-0.47,0.38-0.84,0.84-0.84h6.69
		c0.47,0,0.84,0.38,0.84,0.84v4.32C24.2,36.7,23.82,37.08,23.36,37.08z"/>
	<path class="st1" d="M23.36,37.67h-6.69c-0.79,0-1.43-0.64-1.43-1.43v-4.32c0-0.79,0.64-1.43,1.43-1.43h6.69
		c0.79,0,1.43,0.64,1.43,1.43v4.32C24.79,37.02,24.15,37.67,23.36,37.67z M16.67,31.66c-0.14,0-0.25,0.11-0.25,0.25v4.32
		c0,0.14,0.11,0.25,0.25,0.25h6.69c0.14,0,0.25-0.11,0.25-0.25v-4.32c0-0.14-0.11-0.25-0.25-0.25H16.67z"/>
	<path class="st1" d="M8.95,31.91l-0.63-1c3.95-2.48,5.51-6.65,4.74-12.75l1.17-0.15C15.05,24.52,13.27,29.19,8.95,31.91z"/>
	<path class="st3" d="M12.14,37.06H5.45c-0.47,0-0.84-0.38-0.84-0.84V31.9c0-0.47,0.38-0.84,0.84-0.84h6.69
		c0.47,0,0.84,0.38,0.84,0.84v4.32C12.99,36.68,12.61,37.06,12.14,37.06z"/>
	<path class="st1" d="M12.14,37.65H5.45c-0.79,0-1.43-0.64-1.43-1.43V31.9c0-0.79,0.64-1.43,1.43-1.43h6.69
		c0.79,0,1.43,0.64,1.43,1.43v4.32C13.57,37.01,12.93,37.65,12.14,37.65z M5.45,31.64c-0.14,0-0.25,0.11-0.25,0.25v4.32
		c0,0.14,0.11,0.25,0.25,0.25h6.69c0.14,0,0.25-0.11,0.25-0.25V31.9c0-0.14-0.11-0.25-0.25-0.25H5.45z"/>
	<path class="st1" d="M31.05,31.91c-4.32-2.71-6.1-7.39-5.28-13.89l1.17,0.15c-0.76,6.1,0.79,10.27,4.74,12.75L31.05,31.91z"/>
	<path class="st4" d="M27.86,37.06h6.69c0.47,0,0.84-0.38,0.84-0.84V31.9c0-0.47-0.38-0.84-0.84-0.84h-6.69
		c-0.47,0-0.84,0.38-0.84,0.84v4.32C27.01,36.68,27.39,37.06,27.86,37.06z"/>
	<path class="st1" d="M34.55,37.65h-6.69c-0.79,0-1.43-0.64-1.43-1.43V31.9c0-0.79,0.64-1.43,1.43-1.43h6.69
		c0.79,0,1.43,0.64,1.43,1.43v4.32C35.98,37.01,35.33,37.65,34.55,37.65z M27.86,31.64c-0.14,0-0.25,0.11-0.25,0.25v4.32
		c0,0.14,0.11,0.25,0.25,0.25h6.69c0.14,0,0.25-0.11,0.25-0.25V31.9c0-0.14-0.11-0.25-0.25-0.25H27.86z"/>
</g>
</svg>
